<mxfile host="app.diagrams.net" agent="Mozilla/5.0 (Windows NT 10.0; Win64; x64) AppleWebKit/537.36 (KHTML, like Gecko) Chrome/135.0.0.0 Safari/537.36" version="26.2.14">
  <diagram name="Page-1" id="pchpu7Tx-HEGYEnVaKcF">
    <mxGraphModel dx="872" dy="473" grid="1" gridSize="10" guides="1" tooltips="1" connect="1" arrows="1" fold="1" page="1" pageScale="1" pageWidth="850" pageHeight="1100" math="0" shadow="0">
      <root>
        <mxCell id="0" />
        <mxCell id="1" parent="0" />
        <mxCell id="I_DcxKmEr029iQ1eixn9-1" value="&lt;font style=&quot;font-size: 14px;&quot;&gt;System Comparison - Shufuti vs SharApu&lt;/font&gt;" style="text;html=1;align=center;verticalAlign=middle;whiteSpace=wrap;rounded=0;" vertex="1" parent="1">
          <mxGeometry x="70" y="40" width="300" height="30" as="geometry" />
        </mxCell>
        <mxCell id="I_DcxKmEr029iQ1eixn9-2" value="&lt;h1 style=&quot;margin-top: 0px;&quot;&gt;Those who want to receive work page&lt;/h1&gt;&lt;p&gt;This page is aimed towards the job seeker community. It is basically a descriptive guide for the job seeker about how they can start finding their suitable jobs.&lt;/p&gt;" style="text;html=1;whiteSpace=wrap;overflow=hidden;rounded=0;" vertex="1" parent="1">
          <mxGeometry x="410" y="20" width="430" height="120" as="geometry" />
        </mxCell>
        <mxCell id="I_DcxKmEr029iQ1eixn9-3" value="Shufuti" style="text;html=1;align=center;verticalAlign=middle;whiteSpace=wrap;rounded=0;" vertex="1" parent="1">
          <mxGeometry x="80" y="220" width="60" height="30" as="geometry" />
        </mxCell>
        <mxCell id="I_DcxKmEr029iQ1eixn9-4" value="SharApu" style="text;html=1;align=center;verticalAlign=middle;whiteSpace=wrap;rounded=0;" vertex="1" parent="1">
          <mxGeometry x="80" y="490" width="60" height="30" as="geometry" />
        </mxCell>
        <mxCell id="I_DcxKmEr029iQ1eixn9-5" value="Motivational Speech" style="rounded=1;whiteSpace=wrap;html=1;" vertex="1" parent="1">
          <mxGeometry x="120" y="330" width="120" height="30" as="geometry" />
        </mxCell>
        <mxCell id="I_DcxKmEr029iQ1eixn9-6" value="" style="endArrow=classic;html=1;rounded=0;entryX=0.5;entryY=0;entryDx=0;entryDy=0;" edge="1" parent="1" target="I_DcxKmEr029iQ1eixn9-5">
          <mxGeometry width="50" height="50" relative="1" as="geometry">
            <mxPoint x="140" y="230" as="sourcePoint" />
            <mxPoint x="190" y="180" as="targetPoint" />
          </mxGeometry>
        </mxCell>
        <mxCell id="I_DcxKmEr029iQ1eixn9-7" value="" style="endArrow=classic;html=1;rounded=0;entryX=0.433;entryY=1.05;entryDx=0;entryDy=0;entryPerimeter=0;" edge="1" parent="1" target="I_DcxKmEr029iQ1eixn9-5">
          <mxGeometry width="50" height="50" relative="1" as="geometry">
            <mxPoint x="110" y="490" as="sourcePoint" />
            <mxPoint x="220" y="410" as="targetPoint" />
          </mxGeometry>
        </mxCell>
        <mxCell id="I_DcxKmEr029iQ1eixn9-8" value="" style="endArrow=classic;html=1;rounded=0;" edge="1" parent="1">
          <mxGeometry width="50" height="50" relative="1" as="geometry">
            <mxPoint x="260" y="340" as="sourcePoint" />
            <mxPoint x="310" y="340" as="targetPoint" />
          </mxGeometry>
        </mxCell>
        <mxCell id="I_DcxKmEr029iQ1eixn9-9" value="Find a job Button" style="rounded=1;whiteSpace=wrap;html=1;" vertex="1" parent="1">
          <mxGeometry x="320" y="310" width="120" height="60" as="geometry" />
        </mxCell>
        <mxCell id="I_DcxKmEr029iQ1eixn9-11" value="&lt;h1 style=&quot;margin-top: 0px;&quot;&gt;Yet to be done in SharApu&lt;/h1&gt;&lt;p&gt;&lt;span style=&quot;text-align: center;&quot;&gt;This Leads to Search for a job page. But this button is still not connected to the Search For A Job Page in SharApu.&lt;/span&gt;&lt;/p&gt;" style="text;html=1;whiteSpace=wrap;overflow=hidden;rounded=0;" vertex="1" parent="1">
          <mxGeometry x="260" y="380" width="270" height="140" as="geometry" />
        </mxCell>
        <mxCell id="I_DcxKmEr029iQ1eixn9-12" value="" style="endArrow=classic;html=1;rounded=0;" edge="1" parent="1">
          <mxGeometry width="50" height="50" relative="1" as="geometry">
            <mxPoint x="450" y="339.5" as="sourcePoint" />
            <mxPoint x="520" y="340" as="targetPoint" />
          </mxGeometry>
        </mxCell>
        <mxCell id="I_DcxKmEr029iQ1eixn9-13" value="Small Descriptive Section" style="rounded=1;whiteSpace=wrap;html=1;" vertex="1" parent="1">
          <mxGeometry x="530" y="310" width="110" height="50" as="geometry" />
        </mxCell>
        <mxCell id="I_DcxKmEr029iQ1eixn9-14" value="" style="endArrow=classic;html=1;rounded=0;" edge="1" parent="1">
          <mxGeometry width="50" height="50" relative="1" as="geometry">
            <mxPoint x="650" y="339.5" as="sourcePoint" />
            <mxPoint x="700" y="339.5" as="targetPoint" />
          </mxGeometry>
        </mxCell>
        <mxCell id="I_DcxKmEr029iQ1eixn9-15" value="Mascot + &lt;b&gt;&lt;font style=&quot;font-size: 14px;&quot;&gt;Contact Page Button&lt;/font&gt;&lt;/b&gt;" style="rounded=1;whiteSpace=wrap;html=1;" vertex="1" parent="1">
          <mxGeometry x="710" y="290" width="120" height="90" as="geometry" />
        </mxCell>
        <mxCell id="I_DcxKmEr029iQ1eixn9-16" value="" style="endArrow=classic;html=1;rounded=0;" edge="1" parent="1">
          <mxGeometry width="50" height="50" relative="1" as="geometry">
            <mxPoint x="769.5" y="380" as="sourcePoint" />
            <mxPoint x="770" y="500" as="targetPoint" />
          </mxGeometry>
        </mxCell>
        <mxCell id="I_DcxKmEr029iQ1eixn9-17" value="&lt;b&gt;Contact Page Button leads to contact-us page, Done&lt;/b&gt;" style="text;html=1;align=center;verticalAlign=middle;whiteSpace=wrap;rounded=0;" vertex="1" parent="1">
          <mxGeometry x="620" y="400" width="120" height="70" as="geometry" />
        </mxCell>
      </root>
    </mxGraphModel>
  </diagram>
</mxfile>
